<svg viewBox="0 0 20 20" xmlns="http://www.w3.org/2000/svg"><path d="m18.81 15.246c0.179 0.166 0.28 0.399 0.28 0.643 0 0.482-0.397 0.879-0.879 0.879-0.244 0-0.477-0.101-0.643-0.28l-3.523-3.522-3.523 3.522c-0.166 0.179-0.399 0.28-0.643 0.28-0.482 0-0.879-0.397-0.879-0.879 0-0.244 0.101-0.477 0.28-0.643l4.16-4.161c0.164-0.165 0.388-0.258 0.621-0.258 0.304 0 0.588 0.158 0.748 0.417l4.001 4.002zm-17.126-10.492c-0.178-0.166-0.279-0.399-0.279-0.643 0-0.482 0.396-0.879 0.879-0.879 0.243 0 0.477 0.101 0.643 0.28l3.523 3.522 3.523-3.522c0.166-0.179 0.399-0.28 0.643-0.28 0.482 0 0.879 0.397 0.879 0.879 0 0.244-0.102 0.477-0.28 0.643l-4.16 4.161c-0.165 0.165-0.388 0.258-0.621 0.258-0.305 0-0.588-0.158-0.748-0.417l-4.002-4.002z"/><path d="m16.364 4.343c0.195-0.195 0.195-0.512 0-0.707s-0.512-0.195-0.707 0l-12.021 12.021c-0.195 0.195-0.195 0.512 0 0.707s0.512 0.195 0.707 0l12.021-12.021z"/></svg>