<svg version="1.1" viewBox="0 0 20 20" xmlns="http://www.w3.org/2000/svg"><g transform="matrix(1,0,0,-1,0,17.5)"><path d="m17 1c1.097 0 2 0.903 2 2v9c0 1.097-0.903 2-2 2h-14c-1.097 0-2-0.903-2-2v-9c0-1.097 0.903-2 2-2h14zm0 1.5h-14c-0.241 0-0.449 0.173-0.492 0.41l-8e-3 0.09v9c0 0.241 0.173 0.449 0.41 0.492l0.09 8e-3h14c0.241 0 0.449-0.173 0.492-0.41l8e-3 -0.09v-9c0-0.241-0.173-0.449-0.41-0.492l-0.09-8e-3z" fill-opacity=".6"/></g><path d="m10 2.086-1.293-1.293c-0.39-0.39-1.024-0.39-1.414 0s-0.39 1.024 0 1.414l1.293 1.293-1.293 1.293c-0.39 0.39-0.39 1.024 0 1.414s1.024 0.39 1.414 0l1.293-1.293 1.293 1.293c0.39 0.39 1.024 0.39 1.414 0s0.39-1.024 0-1.414l-1.293-1.293 1.293-1.293c0.39-0.39 0.39-1.024 0-1.414s-1.024-0.39-1.414 0l-1.293 1.293z"/></svg>