<svg version="1.1" viewBox="0 0 20 20" xmlns="http://www.w3.org/2000/svg"><path d="m18.048 1.841h-16.096v16.318h16.096v-16.318zm-11.47 3.637h6.85l0.065 2.323h-0.29c-0.142-0.73-0.323-1.205-0.542-1.425-0.219-0.221-0.68-0.331-1.382-0.331h-0.675v6.995c0 0.53 0.073 0.858 0.219 0.985s0.466 0.21 0.959 0.25v0.247h-3.534v-0.247c0.513-0.044 0.832-0.14 0.959-0.287 0.126-0.147 0.189-0.516 0.189-1.108v-6.835h-0.675c-0.671 0-1.128 0.109-1.37 0.327-0.243 0.218-0.426 0.694-0.548 1.429h-0.296l0.071-2.323z"/><path d="m18.048 1.841h-16.096v16.318h16.096v-16.318zm-4.934 7.958c-0.177-8e-3 -0.348-0.039-0.51-0.09v2.742c0.657 0.296 1.119 0.935 1.172 1.676l6e-3 0.389c0 0.866-0.448 1.361-0.92 1.643h3.186v-12.318h-1.471c0.5 0.351 0.832 0.926 0.85 1.581l0.065 2.323c0.015 0.54-0.189 1.063-0.565 1.45-0.353 0.363-0.83 0.578-1.333 0.603l-0.48 1e-3zm-6.708-1e-3c-0.504-0.025-0.981-0.241-1.335-0.605-0.376-0.388-0.58-0.913-0.563-1.453l0.071-2.323c0.02-0.654 0.352-1.226 0.85-1.576h-1.477v12.318h3.216c-0.472-0.282-0.92-0.777-0.92-1.643v-0.234l1.883 1.877h0.112l-0.163-3.766c-0.149 0.095-0.325 0.216-0.39 0.291-0.101 0.117-0.313 0.58-0.313 0.58s0.019-0.226 0.019-0.384v-3.169c-0.16 0.05-0.328 0.08-0.502 0.088l-0.488-1e-3zm0.172-4.32h6.85l0.065 2.323h-0.29c-0.142-0.73-0.323-1.205-0.542-1.425-0.219-0.221-0.68-0.331-1.382-0.331h-0.675v6.995c0 0.53 0.073 0.858 0.219 0.985s0.466 0.21 0.959 0.25v0.247h-3.534v-0.247c0.513-0.044 0.832-0.14 0.959-0.287 0.126-0.147 0.189-0.516 0.189-1.108v-6.835h-0.675c-0.671 0-1.128 0.109-1.37 0.327-0.243 0.218-0.426 0.694-0.548 1.429h-0.296l0.071-2.323z"/></svg>