<svg version="1.1" viewBox="0 0 20 20" xmlns="http://www.w3.org/2000/svg"><g transform="matrix(1.1554 0 0 1.1756 -2.8054 -3.1886)"><path d="m18.048 4.279h-13.931v13.88h13.931v-13.88zm-1.731 1.701v10.478h-10.469v-10.478h10.469z"/></g><g transform="matrix(12.125 0 0 13.67 6.3413 14.522)"><path d="m0.02-0.662h0.564l6e-3 0.17h-0.024c-0.012-0.053-0.027-0.088-0.045-0.104s-0.056-0.024-0.114-0.024h-0.055v0.512c0 0.038 6e-3 0.062 0.018 0.072 0.012 9e-3 0.038 0.015 0.079 0.018v0.018h-0.292v-0.018c0.043-3e-3 0.069-0.01 0.079-0.021 0.011-0.011 0.016-0.038 0.016-0.081v-0.5h-0.056c-0.055 0-0.093 8e-3 -0.113 0.024s-0.035 0.051-0.045 0.104h-0.024l6e-3 -0.17z"/></g></svg>