<svg version="1.1" viewBox="0 0 20 20" xmlns="http://www.w3.org/2000/svg"><g transform="matrix(1,0,0,-1,9,19)"><path d="m2 16h7c0.549 0 1 0.451 1 1s-0.451 1-1 1h-7c-0.549 0-1-0.451-1-1s0.451-1 1-1z" fill-rule="nonzero"/></g><g transform="matrix(1,0,0,-1,0,19)"><path d="m17 1c1.097 0 2 0.903 2 2v9c0 1.097-0.903 2-2 2h-14c-1.097 0-2-0.903-2-2v-9c0-1.097 0.903-2 2-2h14zm0 1.5h-14c-0.241 0-0.449 0.173-0.492 0.41l-8e-3 0.09v9c0 0.241 0.173 0.449 0.41 0.492l0.09 8e-3h14c0.241 0 0.449-0.173 0.492-0.41l8e-3 -0.09v-9c0-0.241-0.173-0.449-0.41-0.492l-0.09-8e-3z" fill-opacity=".6"/></g></svg>