<svg version="1.1" viewBox="0 0 20 20" xmlns="http://www.w3.org/2000/svg"><path d="m10 1.4004a9 9 0 0 0-9 9 9 9 0 0 0 9 9 9 9 0 0 0 9-9 9 9 0 0 0-9-9zm-4.125 3.3496h1.5c0.206 0 0.375 0.169 0.375 0.375v0.9375c0 0.103 0.0835 0.1875 0.1875 0.1875h0.75c0.103 0 0.1875-0.0845 0.1875-0.1875v-0.9375c0-0.206 0.169-0.375 0.375-0.375h1.5c0.206 0 0.375 0.169 0.375 0.375v0.9375c0 0.103 0.0835 0.1875 0.1875 0.1875h0.75c0.103 0 0.1875-0.0845 0.1875-0.1875v-0.9375c0-0.206 0.169-0.375 0.375-0.375h1.5c0.206 0 0.375 0.169 0.375 0.375v3.375c0 0.237-0.11078 0.45861-0.30078 0.59961l-1.1992 0.90039 0.375 3.375h-6.75l0.375-3.375-1.1992-0.90039c-0.19-0.141-0.30078-0.36261-0.30078-0.59961v-3.375c0-0.206 0.169-0.375 0.375-0.375zm4.125 3.75c-0.415 0-0.75 0.335-0.75 0.75v1.125c0 0.206 0.169 0.375 0.375 0.375h0.75c0.206 0 0.375-0.169 0.375-0.375v-1.125c0-0.415-0.335-0.75-0.75-0.75zm-3.75 5.625h7.5l0.9707 0.9707c0.099 0.099 0.1543 0.235 0.1543 0.375 0 0.293-0.2363 0.5293-0.5293 0.5293h-8.6914c-0.293 0-0.5293-0.2363-0.5293-0.5293 0-0.14 0.055297-0.276 0.1543-0.375l0.9707-0.9707z"/></svg>