<svg version="1.1" viewBox="0 0 20 20" xmlns="http://www.w3.org/2000/svg"><path d="m3.287 17.463 1.38-1.38h10.666l1.38 1.38c0.14 0.14 0.22 0.334 0.22 0.534 0 0.416-0.336 0.753-0.753 0.753h-12.36c-0.417 0-0.753-0.337-0.753-0.753 0-0.2 0.08-0.394 0.22-0.534zm0.313-9.38v-4.8c0-0.293 0.24-0.533 0.533-0.533h2.134c0.293 0 0.533 0.24 0.533 0.533v1.334c0 0.146 0.12 0.266 0.267 0.266h1.066c0.147 0 0.267-0.12 0.267-0.266v-1.334c0-0.293 0.24-0.533 0.533-0.533h2.134c0.293 0 0.533 0.24 0.533 0.533v1.334c0 0.146 0.12 0.266 0.267 0.266h1.066c0.147 0 0.267-0.12 0.267-0.266v-1.334c0-0.293 0.24-0.533 0.533-0.533h2.134c0.293 0 0.533 0.24 0.533 0.533v4.8c0 0.337-0.157 0.654-0.427 0.854l-1.706 1.28 0.533 4.8h-9.6l0.533-4.8-1.706-1.28c-0.27-0.2-0.427-0.517-0.427-0.854zm5.867 3.2h1.066c0.294 0 0.534-0.24 0.534-0.533v-1.6c0-0.59-0.477-1.067-1.067-1.067s-1.067 0.477-1.067 1.067v1.6c0 0.293 0.24 0.533 0.534 0.533z"/></svg>