<svg version="1.1" viewBox="0 0 20 20" xmlns="http://www.w3.org/2000/svg"><path d="m19 1h-18v18h18v-18zm-13.72 14.095 0.97-0.97h7.5l0.97 0.97c0.099 0.099 0.155 0.235 0.155 0.375 0 0.293-0.237 0.53-0.53 0.53h-8.69c-0.293 0-0.53-0.237-0.53-0.53 0-0.14 0.056-0.276 0.155-0.375zm0.22-6.595v-3.375c0-0.206 0.169-0.375 0.375-0.375h1.5c0.206 0 0.375 0.169 0.375 0.375v0.938c0 0.103 0.084 0.187 0.188 0.187h0.75c0.103 0 0.187-0.084 0.187-0.187v-0.938c0-0.206 0.169-0.375 0.375-0.375h1.5c0.206 0 0.375 0.169 0.375 0.375v0.938c0 0.103 0.084 0.187 0.188 0.187h0.75c0.103 0 0.187-0.084 0.187-0.187v-0.938c0-0.206 0.169-0.375 0.375-0.375h1.5c0.206 0 0.375 0.169 0.375 0.375v3.375c0 0.237-0.11 0.459-0.3 0.6l-1.2 0.9 0.375 3.375h-6.75l0.375-3.375-1.2-0.9c-0.19-0.141-0.3-0.363-0.3-0.6zm4.125 2.25h0.75c0.206 0 0.375-0.169 0.375-0.375v-1.125c0-0.415-0.335-0.75-0.75-0.75s-0.75 0.335-0.75 0.75v1.125c0 0.206 0.169 0.375 0.375 0.375z"/></svg>