<svg version="1.1" viewBox="0 0 20 20" xmlns="http://www.w3.org/2000/svg"><!--! Font Awesome Free 6.4.0 by @fontawesome - https://fontawesome.com License - https://fontawesome.com/license/free (Icons: CC BY 4.0, Fonts: SIL OFL 1.1, Code: MIT License) Copyright 2023 Fonticons, Inc. --><path d="m18 10v0.08437c-0.012504 1.1406-1.05 1.9156-2.1906 1.9156h-3.0594c-0.82812 0-1.5 0.67188-1.5 1.5 0 0.10625 0.0125 0.20938 0.03125 0.30938 0.06562 0.31875 0.20312 0.625 0.3375 0.93438 0.19062 0.43125 0.37812 0.85938 0.37812 1.3125 0 0.99375-0.675 1.8969-1.6688 1.9375-0.10938 0.003125-0.21875 0.00625-0.33125 0.00625-4.4156 0-7.9969-3.5812-7.9969-8s3.5812-8 8-8 8 3.5812 8 8zm-12 1a1 1 0 1 0-2 0 1 1 0 1 0 2 0zm0-3a1 1 0 1 0 0-2 1 1 0 1 0 0 2zm5-3a1 1 0 1 0-2 0 1 1 0 1 0 2 0zm3 3a1 1 0 1 0 0-2 1 1 0 1 0 0 2z" stroke-width=".03125"/></svg>